<svg xmlns="http://www.w3.org/2000/svg" viewBox="0 0 932 969"><defs><style>.cls-1{isolation:isolate;}.cls-2{fill:#1e3f6a;}.cls-3{fill:#fff;}.cls-4{fill:#e82429;}.cls-10,.cls-5{fill:#231f20;mix-blend-mode:multiply;}.cls-5{opacity:0.2;}.cls-6{fill:#44bbe7;}.cls-7{fill:#faaf40;}.cls-8{fill:#1b75bb;}.cls-9{fill:#f05a28;}.cls-10{opacity:0.1;}.cls-11{fill:#51c5ec;}</style></defs><title>Artboard 1</title><g class="cls-1"><g id="Layer_1" data-name="Layer 1"><ellipse class="cls-2" cx="314.86" cy="298.6" rx="155.34" ry="150.15" transform="translate(-74.46 490.25) rotate(-69.69)"/><rect class="cls-2" x="327.7" y="125.95" width="80.01" height="178.56" transform="translate(637.84 544.71) rotate(-159.69)"/><path class="cls-2" d="M635.21,48.59s-207.08-72.57-274,69l75.26,27.85s41.05-128.41,244.89-68.9C681.32,76.57,667.12,61.22,635.21,48.59Z"/><path class="cls-3" d="M757.93,525.78c53.22-65.72,77.88-112.81,89.3-142.62a74.28,74.28,0,0,1-28.37-42.68q-8.83-13.77-17.15-27.83a17.74,17.74,0,0,1-1.34-2.83q-9.4-2.52-19.2-4.31C706.77,292,634.42,312.86,606,322.81a193.59,193.59,0,0,0-112.73-65.54A130.83,130.83,0,0,0,472,254.91a17.46,17.46,0,0,0-16.82,12.43q-13.93-4.29-27.26-7.56c-11.4-28.36-46.41-86.21-145.39-104.24-8.32-1.52-17.05-2.74-25.93-3.63a17.48,17.48,0,0,0-18.16,11.44c-1.25,3.47-28.13,78.79-19.68,137-31.49,12.51-39.8,26.29-42,32.15A17.46,17.46,0,0,0,195,355.94l12.53-1.29-18.76,51.72c-59.81,5.18-85,41.21-85,41.21a17.46,17.46,0,0,0-2.23,22.3q.49.72,1,1.38c-48.5,36-63.25,81.8-64,84.22a17.45,17.45,0,0,0,8,20.29,16.74,16.74,0,0,0,3.78,1.63C24.38,649.77,78.84,688.77,79.49,689.22a17.84,17.84,0,0,0,3.84,2c17.78,57.93,53.14,100.76,55,103a17.5,17.5,0,0,0,20.7,4.66,245.18,245.18,0,0,0,33.85,40.26,17.44,17.44,0,0,0,22.38,1.05,183.92,183.92,0,0,0,26,26.18c.81.66,1.59,1.28,2.36,1.88.31.28.64.56,1,.83,33.74,26.75,74.6,44.64,121.44,53.17,49.51,9,98.73,6.48,139.55.37a17.45,17.45,0,0,0,12.62,24.64,16.8,16.8,0,0,0,4.15.25c67-3.92,114-23.64,146.39-46.1a17.45,17.45,0,0,0,27,10.68c37-25.58,60-69.89,73.84-109.93a17.47,17.47,0,0,0,16.13-6.36c27.92-34.86,30.44-78.74,23.55-118.61a17.45,17.45,0,0,0,16.15-19.05C820.25,603.34,778.16,549,757.93,525.78Z"/><ellipse class="cls-4" cx="444.35" cy="575.97" rx="34.07" ry="22.91" transform="translate(-236.48 832.21) rotate(-72.98)"/><path class="cls-4" d="M824.78,383.92c1-.77,3.75-4.31,2.27-3.52a10.94,10.94,0,0,1-12.32-1.3c-4.52-.18-8.08-3.14-9.79-7.65-.19-.5-1-3.54-1.44-3.67.26.63.42,1,.46,1.09s-.08-.17-.17-.37c-.15-.36-.31-.71-.47-1.07-.27-.58-.53-1.17-.81-1.76-.37-.8-.76-1.6-1.16-2.39-4-6.09-7.54-12.53-11.32-18.61-2.92-4.68-1.16-11.78,3.77-14.39.33-.17.66-.33,1-.47a10.32,10.32,0,0,1,8.47.05,9.53,9.53,0,0,1,1.09-.75q-9.4-2.92-18.87-4.95c-70.52-15.23-141.75,4.3-171.2,14.27-9,3-14.08,5.19-14.08,5.19-52.58-70.83-128.28-71.25-128.28-71.25,27.49,9.72,48.68,38.08,49,38.53-42.24-18.77-77.46-29.92-106.25-36.29-6.53-21.8-37.1-93-159.79-105.33,0,0-31.81,87.94-15.87,142.46-40.57,12.6-45.84,26.84-45.84,26.84l40.23-4.16L201.64,422c-53.27,6.68-85.18,37.55-85.68,38,9.66-4.31,39,1.86,39,1.86-78.94,31.67-99.75,98.74-99.75,98.74a43.51,43.51,0,0,1,31.05-14.22c-58.75,84.84,2.5,128,3.15,128.44-2.14-5.37,2-31.17,2-31.17C98.27,719.08,151.73,783,151.73,783c-2.65-9.25-2.6-54.47-2.6-54.47,4.87,50.74,54.78,97,55.56,97.73-5.67-7.73-8.05-52.57-8.05-52.57,16.53,41.43,39.51,65.95,55.67,79.13,1.13.92,2.19,1.74,3.24,2.55h-.09C389.87,962,598.79,881.56,598.79,881.56c-34.64,36.88-77.44,48.53-77.44,48.53,156.9-9.19,196.12-110.24,196.12-110.24-4.18,25.31-31.64,77.88-31.64,77.88,66.39-45.85,83.82-163.25,86-180,9.11,21.42.27,67.17.27,67.17,49.89-62.28,5.4-162.17-12-195.67-3.75-7.23-6.24-11.37-6.24-11.37A70,70,0,0,1,764.14,588c21,24.59,43.9,71.83,43.9,71.83-2.55-27-15.45-54.47-29.72-77.36a358.34,358.34,0,0,0-43.48-56c59.7-71.59,81.08-110.71,92.13-140ZM245.56,494.49c5.51-18,19.78-29.57,31.88-25.87s17.43,21.29,11.92,39.28-19.77,29.57-31.87,25.87S240.05,512.48,245.56,494.49Zm-20.89,130.1s-17.58-32.41-19.9-59.22,41.48-2.16,80.67,20.85S224.67,624.59,224.67,624.59Zm278.86-64c-18.14,61.39-74,99-124.78,84S301.5,567.7,319.64,506.31s85.53-138,136.31-123S521.66,499.23,503.53,560.63ZM769.44,713.22a24.2,24.2,0,0,1,1.25,2.25l-1.4-.17C769.39,714,769.44,713.22,769.44,713.22Zm-52.93-243.8S691.15,414.17,652.78,380c0,0,87.78-41.6,140.87-12.14C793.65,367.9,761.68,442.57,716.51,469.42Z"/><path class="cls-5" d="M827,386.39c-11.05,29.28-32.43,68.4-92.13,140a358.34,358.34,0,0,1,43.48,56A147.6,147.6,0,0,1,764.14,588a70,70,0,0,0-10.26-10.1s2.49,4.14,6.24,11.37A152.87,152.87,0,0,1,662.71,586C585,557.19,544.43,473,572.23,397.86a140.51,140.51,0,0,1,42-59.43c39.49-32.88,96.11-44.07,149.1-24.46a157.18,157.18,0,0,1,22.1,10.19q4.78,2.68,9.31,5.65c-.33.14-.66.3-1,.47-4.93,2.61-6.69,9.71-3.77,14.39,3.78,6.08,7.32,12.52,11.32,18.61.4.79.79,1.59,1.16,2.39.28.59.54,1.18.81,1.76.16.36.32.71.47,1.07.09.2.14.32.17.37s-.2-.46-.46-1.09c.46.13,1.25,3.17,1.44,3.67,1.71,4.51,5.27,7.47,9.79,7.65a10.94,10.94,0,0,0,12.32,1.3c1.48-.79-1.31,2.75-2.27,3.52Z"/><ellipse class="cls-2" cx="722.7" cy="442" rx="145.01" ry="150.15" transform="translate(57.34 966.36) rotate(-69.69)"/><ellipse class="cls-6" cx="743.24" cy="446.57" rx="135.39" ry="129.3" transform="translate(66.47 988.62) rotate(-69.69)"/><path class="cls-2" d="M784.6,347.24,654.06,397.79c1.46-2.79,3-5.51,4.71-8.15l117.45-45.48c1.47.46,2.92,1,4.37,1.5S783.28,346.68,784.6,347.24Z"/><path class="cls-2" d="M758.57,340.33,670.34,374.5a108.23,108.23,0,0,1,11.17-10.66h0l62.32-24.14c1.1,0,2.21-.05,3.31-.05A96.73,96.73,0,0,1,758.57,340.33Z"/><path class="cls-2" d="M802.46,357.09,645.88,417.73q1-3.21,2.16-6.39c.11-.31.22-.61.34-.91l147.94-57.29C798.42,354.38,800.46,355.7,802.46,357.09Z"/><path class="cls-2" d="M826.36,381,640.94,452.82c-.05-2.12,0-4.24.06-6.35l181.69-70.36C824,377.7,825.19,379.33,826.36,381Z"/><path class="cls-2" d="M815.62,368.18,642,435.42c.31-2.26.7-4.52,1.15-6.77L810.86,363.7C812.49,365.13,814.08,366.63,815.62,368.18Z"/><path class="cls-2" d="M834.45,394.65,642.47,469q-.51-3-.86-6L831.67,389.4Q833.13,392,834.45,394.65Z"/><path class="cls-2" d="M844,424.21l-192,74.34c-.81-1.62-1.57-3.27-2.3-4.95l-.18-.42,193.27-74.84Q843.52,421.25,844,424.21Z"/><path class="cls-2" d="M840.19,408.71,646.11,483.86c-.6-1.88-1.16-3.78-1.66-5.68l193.75-75C838.91,405,839.58,406.84,840.19,408.71Z"/><path class="cls-2" d="M845.55,440.39,660.16,512.18c-1.16-1.63-2.27-3.32-3.33-5l188.42-73Q845.49,437.27,845.55,440.39Z"/><path class="cls-2" d="M842.4,468.87q-.87,3.57-2,7.09l-156,60.4q-2.87-2-5.59-4.17Z"/><path class="cls-2" d="M845.26,450.77c-.16,2.2-.4,4.4-.69,6.6L670.63,524.73c-1.49-1.5-2.92-3.06-4.31-4.66Z"/><path class="cls-2" d="M835.88,488.17c-1.16,2.65-2.42,5.25-3.77,7.78l-129.63,50.2c-2.54-1-5-2.2-7.44-3.45Z"/><path class="cls-2" d="M822.83,510.57a110.7,110.7,0,0,1-7.89,9.39L729.6,553a95.19,95.19,0,0,1-11.49-1.88Z"/><rect class="cls-7" x="730.88" y="275.16" width="80.01" height="178.56" transform="translate(1367.37 973.8) rotate(-159.69)"/><rect class="cls-8" x="732.93" y="263.75" width="14.22" height="178.56" transform="translate(1311.54 940.96) rotate(-159.69)"/><rect class="cls-9" x="751.36" y="278.83" width="80.01" height="60.58" transform="translate(1426.24 873.69) rotate(-159.69)"/><rect class="cls-10" x="753.4" y="267.41" width="14.22" height="60.58" transform="translate(1370.42 840.86) rotate(-159.69)"/><ellipse class="cls-8" cx="733.9" cy="445.96" rx="50.38" ry="42.73" transform="translate(60.94 979.45) rotate(-69.69)"/><ellipse class="cls-3" cx="743.24" cy="449.41" rx="50.38" ry="42.73" transform="translate(63.8 990.46) rotate(-69.69)"/><path class="cls-11" d="M839.4,294.6l-75.17-27.82s54.29-122.21-129-218.19C635.21,48.59,875.47,120.14,839.4,294.6Z"/><path class="cls-3" d="M572.77,632.08c83-61.41,71.93,52.1,71.93,52.1h0C631.82,590.8,572.77,632.08,572.77,632.08Z"/><path class="cls-3" d="M418.1,804.86c-47.94,0-101.35-15.83-159.68-47.42a4.47,4.47,0,0,1,4.26-7.87c87.9,47.61,163.93,58.6,226,32.66,87-36.39,116.43-134.57,116.71-135.55a4.48,4.48,0,0,1,8.6,2.49c-1.22,4.19-30.78,103.19-121.79,141.28Q457.74,804.86,418.1,804.86Z"/></g></g></svg>