<svg xmlns="http://www.w3.org/2000/svg" viewBox="0 0 160 36">
  <defs>
    <style>
      .cls-1 {
        fill: #ec6c6b;
      }

      .cls-2 {
        fill: #fff;
      }

      .cls-3 {
        fill: #fcfcfc;
      }
    </style>
  </defs>
  <g id="レイヤー_3" data-name="レイヤー 3">
    <path class="cls-1" d="M18,35A17,17,0,0,1,18,1H142a17,17,0,0,1,0,34Z"/>
    <path class="cls-1" d="M142,2a16,16,0,0,1,0,32H18A16,16,0,0,1,18,2H142m0-2H18A18,18,0,0,0,0,18H0A18,18,0,0,0,18,36H142a18,18,0,0,0,18-18h0A18,18,0,0,0,142,0Z"/>
    <g>
      <path class="cls-2" d="M20.51,26.4h14a9.49,9.49,0,0,0-13.41-.59C20.9,26,20.7,26.19,20.51,26.4Z"/>
      <path class="cls-2" d="M30.16,18.68a1,1,0,0,0-.95-1.05h-.05a.92.92,0,0,0-1,.82v.1a1.11,1.11,0,0,0,1.1,1.08.88.88,0,0,0,.9-.86Z"/>
      <path class="cls-2" d="M26.38,16.25a.88.88,0,0,0-.83.91.91.91,0,0,0,.87.95h0a.79.79,0,0,0,.77-.81v0A.94.94,0,0,0,26.38,16.25Z"/>
      <path class="cls-2" d="M25.16,13.49s-.08-3.72-.09-3.89H23.76c0,.22-.08,3.81-.08,3.81v.11l-2.13.14V15H23.7v1.09h0a33.15,33.15,0,0,0-2.8,3.12l.87.95,1.9-2v.29s.07,3.91.08,4.14h1.31c0-1,.1-4.06.1-6.55V14.87l1.61-.13V13.46h-.31Z"/>
      <path class="cls-2" d="M32.43,9.61H31.07v3.74h-.33l-3,.19v1.23H31V21H29.34c0,.17-.11,1.07-.13,1.26a26.24,26.24,0,0,0,3.19.28c0-1,.1-4.2.1-6.58V14.74l1.59-.12V13.33H32.51S32.43,9.83,32.43,9.61Z"/>
    </g>
    <g>
      <path class="cls-3" d="M49.73,15.48a2.11,2.11,0,0,0-.2.54A10.68,10.68,0,0,1,42.7,23.8a4.3,4.3,0,0,0-1.05-1.42,8.73,8.73,0,0,0,6.26-6.46H42.2a8.63,8.63,0,0,0-1.51.07V14.44a8.44,8.44,0,0,0,1.53.08h5.51a6.11,6.11,0,0,0,.86,0,6.78,6.78,0,0,0-.74-1.21l.87-.32a7.21,7.21,0,0,1,1.07,1.89l-.48.19Zm.71-.85a8.46,8.46,0,0,0-1-1.86l.86-.33a6.92,6.92,0,0,1,1.06,1.83Z"/>
      <path class="cls-3" d="M53.55,22.24v.84H52a7.25,7.25,0,0,0,0-1V15.18a7.21,7.21,0,0,0,0-1c.29,0,.54,0,1,0h6.81c.52,0,.74,0,1,0,0,.31,0,.55,0,1V22a9.87,9.87,0,0,0,0,1H59.31v-.83Zm5.76-6.68H53.55v5.32h5.76Z"/>
      <path class="cls-3" d="M71.69,15.49a2.36,2.36,0,0,0-.3.72A11.83,11.83,0,0,1,69,20.74a12.09,12.09,0,0,1-4.27,3,3.88,3.88,0,0,0-1-1.26,9.66,9.66,0,0,0,6.13-6.47l-3.61.05a11.68,11.68,0,0,1-2.81,3.08,3.28,3.28,0,0,0-1.16-1,9.43,9.43,0,0,0,3.11-3.48A4.63,4.63,0,0,0,66,13.08l1.64.34a1.24,1.24,0,0,0-.2.35c-.1.22-.21.46-.33.7a1,1,0,0,0-.08.17l-.1.18c.15,0,.34,0,.58,0l2.62,0a4,4,0,0,0,.63,0,7.76,7.76,0,0,0-.88-1.5l.89-.29a7.68,7.68,0,0,1,1.07,1.89l-.52.19Zm.78-.86a8.89,8.89,0,0,0-1-1.86l.86-.3a7,7,0,0,1,1.06,1.82Z"/>
      <path class="cls-3" d="M75.32,14a6.3,6.3,0,0,0-.07-1.16h1.4a7.55,7.55,0,0,0-.07,1.17v1H77A7.12,7.12,0,0,0,78,15v1.31a8.72,8.72,0,0,0-1-.06h-.4a9.41,9.41,0,0,0,1.73,2.41,4.38,4.38,0,0,0-.65,1.21,9.22,9.22,0,0,1-1.16-2,13.73,13.73,0,0,1,.06,1.75v2.95a9.26,9.26,0,0,0,.07,1.31H75.26a9.14,9.14,0,0,0,.07-1.29V20.24a16.2,16.2,0,0,1,.07-1.79,10.93,10.93,0,0,1-1.62,3,4.36,4.36,0,0,0-.67-1.26,12.41,12.41,0,0,0,2.11-4H74.6a9.88,9.88,0,0,0-1.15.06V15a8.22,8.22,0,0,0,1.16.07h.71ZM83,22.4c0,.67-.17,1-.55,1.16a3.62,3.62,0,0,1-1.33.15c-.31,0-.42,0-1.25-.05a4,4,0,0,0-.36-1.33,3.44,3.44,0,0,1,.36.05,12.73,12.73,0,0,0,1.33.09c.4,0,.49-.06.49-.34V16.34H79.6a12.2,12.2,0,0,0-1.34.07V15.08a9.3,9.3,0,0,0,1.33.07h2.07v-.82a9.33,9.33,0,0,0-.08-1.41H83A11.26,11.26,0,0,0,83,14.34v.81h.08a7.22,7.22,0,0,0,1.17-.07v1.31a9.68,9.68,0,0,0-1.13-.05H83ZM79.8,20.74a10.57,10.57,0,0,0-1.49-3l1.12-.55A10.84,10.84,0,0,1,80.94,20Z"/>
      <path class="cls-3" d="M84.91,14.57h.45c.22,0,.22,0,2-.12.88-.05,2.93-.16,6.13-.31a6.44,6.44,0,0,0,1.24-.1l.08,1.52h-.25a5.37,5.37,0,0,0-2.38.65,3.9,3.9,0,0,0-2.42,3.2,2,2,0,0,0,1.6,2,7.17,7.17,0,0,0,1.78.31h.24l-.21,1.63a2.63,2.63,0,0,0-.41-.07,7.21,7.21,0,0,1-2.81-.8,3.2,3.2,0,0,1-1.71-2.89,4.11,4.11,0,0,1,1.14-2.81A5.15,5.15,0,0,1,91,15.51c-1,.15-1.71.22-4,.39a13.34,13.34,0,0,0-2,.24Zm8.26,2.3a7.75,7.75,0,0,1,1.26,1.76l-.84.45a7.86,7.86,0,0,0-1.26-1.79ZM95,18.32a9.3,9.3,0,0,0-1.22-1.74l.8-.42a6.92,6.92,0,0,1,1.25,1.69Z"/>
      <path class="cls-3" d="M106.41,14.85a1.84,1.84,0,0,0-.21.54,11.18,11.18,0,0,1-2.46,5,11.64,11.64,0,0,1-4.46,3.06,4.33,4.33,0,0,0-1-1.43,10,10,0,0,0,2.62-1.22,8.35,8.35,0,0,0,3.64-5.23H98.78a9.5,9.5,0,0,0-1.51.07V14.11a8.7,8.7,0,0,0,1.53.08h5.51a4.22,4.22,0,0,0,1.28-.12Z"/>
      <path class="cls-3" d="M109,18.07a8.23,8.23,0,0,0-1.08.05v-1.3a5.22,5.22,0,0,0,1.08.07h3.49v-.73a5.87,5.87,0,0,0-.06-.95h1.4a6.68,6.68,0,0,0,0,.9v.8h1a5,5,0,0,0,1.08-.08v1.3a7.85,7.85,0,0,0-1.09-.05h-1l.06,4.57a5.38,5.38,0,0,0,.07,1h-1.46a8.56,8.56,0,0,0,0-1l0-3c0-.13,0-.6,0-.75a4.51,4.51,0,0,1-.41.68,11.4,11.4,0,0,1-3.89,3.16,3.73,3.73,0,0,0-.88-1.12A10.76,10.76,0,0,0,109.91,20a9.12,9.12,0,0,0,1.76-2Z"/>
      <path class="cls-3" d="M119.55,22.24v.84H118a7.25,7.25,0,0,0,0-1V15.18a7.21,7.21,0,0,0,0-1c.29,0,.54,0,1,0h6.81c.52,0,.74,0,1,0,0,.31,0,.55,0,1V22a9.87,9.87,0,0,0,0,1h-1.54v-.83Zm5.76-6.68h-5.76v5.32h5.76Z"/>
      <path class="cls-3" d="M129,17.51a12.2,12.2,0,0,0,1.94.08h6.4a12.2,12.2,0,0,0,1.94-.08v1.66a13.19,13.19,0,0,0-2-.06H131a13.19,13.19,0,0,0-2,.06Z"/>
    </g>
  </g>
</svg>
