<?xml version="1.0" encoding="utf-8"?>
<!-- Generator: Adobe Illustrator 23.0.3, SVG Export Plug-In . SVG Version: 6.00 Build 0)  -->
<svg version="1.1" id="Calque_1" xmlns="http://www.w3.org/2000/svg" xmlns:xlink="http://www.w3.org/1999/xlink" x="0px" y="0px"
	 viewBox="0 0 28.35 28.35" style="enable-background:new 0 0 28.35 28.35;" xml:space="preserve">
<style type="text/css">
	.st0{fill:none;stroke:#0183bf;stroke-miterlimit:10;}
	.st1{fill:#0183bf;}
	.st2{fill:none;stroke:#FFFFFF;stroke-width:0.9546;stroke-miterlimit:10;}
	.st3{fill:none;stroke:#0183bf;stroke-linecap:round;stroke-miterlimit:10;}
	.st4{fill:none;stroke:#00A7E7;stroke-miterlimit:10;}
	.st5{fill:#FFFFFF;stroke:#00A7E7;stroke-miterlimit:10;}
	.st6{fill:none;stroke:#00A7E7;stroke-linecap:round;stroke-miterlimit:10;}
	.st7{fill:none;stroke:#F39207;stroke-miterlimit:10;}
	.st8{fill:none;stroke:#F18700;stroke-miterlimit:10;}
	.st9{fill:#F18700;}
	.st10{fill:none;stroke:#C90C0F;stroke-linecap:round;stroke-miterlimit:10;}
	.st11{fill:none;stroke:#0076A7;stroke-linecap:round;stroke-miterlimit:10;}
	.st12{fill:none;stroke:#0076A7;stroke-miterlimit:10;}
	.st13{fill:none;stroke:#F9B233;stroke-miterlimit:10;}
	.st14{fill:none;stroke:#F9B233;stroke-linecap:round;stroke-miterlimit:10;}
	.st15{fill:none;stroke:#008ECA;stroke-miterlimit:10;}
	.st16{fill:none;stroke:#008ECA;stroke-linecap:round;stroke-miterlimit:10;}
	.st17{fill:none;stroke:#F39207;stroke-width:0.9941;stroke-linecap:round;stroke-miterlimit:10;}
	.st18{fill:none;stroke:#000000;stroke-width:0.9941;stroke-linecap:round;stroke-miterlimit:10;}
	.st19{fill:none;stroke:#DE322F;stroke-width:0.9941;stroke-linecap:round;stroke-miterlimit:10;}
	.st20{fill:none;stroke:#DE322F;stroke-linecap:round;stroke-miterlimit:10;}
	.st21{fill:none;stroke:#C90C0F;stroke-width:0.9941;stroke-linecap:round;stroke-miterlimit:10;}
	.st22{fill:#F59C00;}
</style>
<g>
	<g>
		<path class="st0" d="M19.01,25.24h-8.35c-0.78,0-1.42-0.64-1.42-1.42V8.35c0-0.78,0.64-1.42,1.42-1.42h8.35
			c0.78,0,1.42,0.64,1.42,1.42v15.48C20.43,24.6,19.79,25.24,19.01,25.24z"/>
	</g>
	<g>
		<path class="st1" d="M12.61,13.85L12.61,13.85c-0.77,0-1.41-0.59-1.41-1.32V9.92c0-0.72,0.63-1.32,1.41-1.32h0
			c0.77,0,1.41,0.59,1.41,1.32v2.62C14.01,13.26,13.38,13.85,12.61,13.85z"/>
		<circle class="st2" cx="12.61" cy="10.26" r="0.18"/>
		<circle class="st2" cx="12.61" cy="12.07" r="0.18"/>
	</g>
	<line class="st3" x1="10.81" y1="7.92" x2="7.92" y2="5.11"/>
	<line class="st3" x1="14.52" y1="7.92" x2="17.42" y2="5.11"/>
	<line class="st3" x1="12.61" y1="7.11" x2="12.61" y2="3.1"/>
</g>
</svg>
